<?xml version="1.0" standalone="no"?><!DOCTYPE svg PUBLIC "-//W3C//DTD SVG 1.1//EN" "http://www.w3.org/Graphics/SVG/1.1/DTD/svg11.dtd"><svg t="1665146521266" class="icon" viewBox="0 0 1024 1024" version="1.1" xmlns="http://www.w3.org/2000/svg" p-id="2583" xmlns:xlink="http://www.w3.org/1999/xlink" width="32" height="32"><path d="M1019.852028 961.510784c0 0.041956 0.021489 0.083911 0.021489 0.124843 0 26.28669-16.018835 37.032428-42.307571 37.032428L46.432007 998.668055c-26.287713 0-42.305525-10.746762-42.305525-37.032428 0-0.040932 0.021489-0.082888 0.021489-0.124843l-0.040932 0c0 0 0-173.511799 126.785591-236.585323 80.205717-39.927361 49.330522-7.523347 147.804301-48.360428 98.492198-40.793078 121.82665-55.053873 121.82665-55.053873l0.910743-93.991698c0 0-36.869722-28.228925-48.337915-116.681466-23.084765 6.653537-30.711466-27.114544-32.054043-48.607044-1.238201-20.748556-13.369495-85.640496 14.798031-79.771835-5.768377-43.316551-9.900487-82.376149-7.873318-103.083773 7.067976-72.621994 77.022211-148.507312 184.774307-154.045445C639.509581 30.828123 689.729355 106.714464 696.754353 179.335435c2.068102 20.707624-2.457981 59.767222-8.224312 103.000885 28.166503-5.745864 15.930831 59.023278 14.548344 79.771835-1.239224 21.493523-9.029654 55.137785-32.051997 48.482201-11.510148 88.493473-48.40136 116.474758-48.40136 116.474758l0.867764 93.53428c0 0 23.334451 13.307074 121.809253 54.105269 98.493222 40.835034 67.598584 10.293437 147.823744 50.218752 126.766149 63.075571 126.766149 236.585323 126.766149 236.585323L1019.852028 961.510784 1019.852028 961.510784z" p-id="2584"></path></svg>